<svg version="1.1" xmlns="http://www.w3.org/2000/svg" viewBox="0 0 122.594247299156 107.07172114490913" width="367.782741897468" height="321.2151634347274">
  <!-- svg-source:excalidraw -->
  
  <defs>
    <style class="style-fonts">
      
    </style>
    
  </defs>
  <g stroke-linecap="round" transform="translate(11.292523923331373 35.47105615248995) rotate(35.106079330264826 50.004599726246624 18.064804419964616)"><path d="M9.03 0 C26.66 0, 44.29 0, 90.98 0 C97 0, 100.01 3.01, 100.01 9.03 C100.01 14.2, 100.01 19.36, 100.01 27.1 C100.01 33.12, 97 36.13, 90.98 36.13 C60.33 36.13, 29.68 36.13, 9.03 36.13 C3.01 36.13, 0 33.12, 0 27.1 C0 20.58, 0 14.06, 0 9.03 C0 3.01, 3.01 0, 9.03 0" stroke="none" stroke-width="0" fill="#ffec99"></path><path d="M9.03 0 C27.03 0, 45.02 0, 90.98 0 M9.03 0 C41.77 0, 74.51 0, 90.98 0 M90.98 0 C97 0, 100.01 3.01, 100.01 9.03 M90.98 0 C97 0, 100.01 3.01, 100.01 9.03 M100.01 9.03 C100.01 15.72, 100.01 22.41, 100.01 27.1 M100.01 9.03 C100.01 16.04, 100.01 23.05, 100.01 27.1 M100.01 27.1 C100.01 33.12, 97 36.13, 90.98 36.13 M100.01 27.1 C100.01 33.12, 97 36.13, 90.98 36.13 M90.98 36.13 C66.9 36.13, 42.82 36.13, 9.03 36.13 M90.98 36.13 C67.27 36.13, 43.55 36.13, 9.03 36.13 M9.03 36.13 C3.01 36.13, 0 33.12, 0 27.1 M9.03 36.13 C3.01 36.13, 0 33.12, 0 27.1 M0 27.1 C0 20.4, 0 13.71, 0 9.03 M0 27.1 C0 20.64, 0 14.17, 0 9.03 M0 9.03 C0 3.01, 3.01 0, 9.03 0 M0 9.03 C0 3.01, 3.01 0, 9.03 0" stroke="#f08c00" stroke-width="2" fill="none"></path></g><g stroke-linecap="round" transform="translate(42.369200160837636 38.35278721342945) rotate(35.106079330264826 18.877845759176125 15.015071226147029)"><path d="M7.51 0 C13.92 0, 20.34 0, 30.25 0 C35.25 0, 37.76 2.5, 37.76 7.51 C37.76 12.91, 37.76 18.31, 37.76 22.52 C37.76 27.53, 35.25 30.03, 30.25 30.03 C24.34 30.03, 18.44 30.03, 7.51 30.03 C2.5 30.03, 0 27.53, 0 22.52 C0 19.33, 0 16.14, 0 7.51 C0 2.5, 2.5 0, 7.51 0" stroke="none" stroke-width="0" fill="#fff9db"></path><path d="M7.51 0 C15.41 0, 23.32 0, 30.25 0 M7.51 0 C15.5 0, 23.49 0, 30.25 0 M30.25 0 C35.25 0, 37.76 2.5, 37.76 7.51 M30.25 0 C35.25 0, 37.76 2.5, 37.76 7.51 M37.76 7.51 C37.76 12.27, 37.76 17.04, 37.76 22.52 M37.76 7.51 C37.76 13.3, 37.76 19.08, 37.76 22.52 M37.76 22.52 C37.76 27.53, 35.25 30.03, 30.25 30.03 M37.76 22.52 C37.76 27.53, 35.25 30.03, 30.25 30.03 M30.25 30.03 C23.36 30.03, 16.47 30.03, 7.51 30.03 M30.25 30.03 C23.3 30.03, 16.36 30.03, 7.51 30.03 M7.51 30.03 C2.5 30.03, 0 27.53, 0 22.52 M7.51 30.03 C2.5 30.03, 0 27.53, 0 22.52 M0 22.52 C0 17.21, 0 11.9, 0 7.51 M0 22.52 C0 17.08, 0 11.63, 0 7.51 M0 7.51 C0 2.5, 2.5 0, 7.51 0 M0 7.51 C0 2.5, 2.5 0, 7.51 0" stroke="#ffd43b" stroke-width="2" fill="none"></path></g><g transform="translate(32.85148095598265 22.149891191407505) rotate(0 0.00004999999998744897 0.00004999999998744897)" stroke="none"><path fill="#f08c00" d="M 3.14,-3.14 Q 3.14,-3.14 3.55,-2.55 3.97,-1.97 4.18,-1.28 4.40,-0.59 4.38,0.11 4.36,0.83 4.11,1.51 3.86,2.18 3.41,2.74 2.96,3.30 2.36,3.69 1.75,4.08 1.05,4.25 0.36,4.42 -0.35,4.36 -1.07,4.31 -1.73,4.02 -2.39,3.74 -2.92,3.26 -3.46,2.78 -3.81,2.15 -4.16,1.53 -4.30,0.82 -4.43,0.11 -4.34,-0.59 -4.24,-1.30 -3.92,-1.94 -3.60,-2.59 -3.09,-3.09 -2.59,-3.60 -1.94,-3.92 -1.30,-4.24 -0.59,-4.34 0.12,-4.43 0.82,-4.30 1.53,-4.16 2.15,-3.81 2.78,-3.46 3.26,-2.92 3.74,-2.39 4.02,-1.73 4.31,-1.07 4.36,-0.35 4.42,0.36 4.25,1.05 4.07,1.75 3.69,2.36 3.30,2.96 2.74,3.41 2.18,3.86 1.51,4.11 0.83,4.36 0.11,4.38 -0.60,4.40 -1.28,4.18 -1.97,3.97 -2.55,3.55 -3.14,3.13 -3.14,3.14 -3.14,3.14 -3.47,2.71 -3.80,2.29 -4.02,1.80 -4.24,1.32 -4.33,0.79 -4.43,0.26 -4.40,-0.26 -4.36,-0.80 -4.20,-1.31 -4.04,-1.82 -3.77,-2.28 -3.49,-2.73 -3.11,-3.11 -2.73,-3.49 -2.28,-3.77 -1.82,-4.05 -1.31,-4.20 -0.80,-4.36 -0.26,-4.40 0.26,-4.43 0.79,-4.33 1.32,-4.24 1.80,-4.02 2.29,-3.80 2.71,-3.47 3.14,-3.14 3.14,-3.14 L 3.14,-3.14 Z"></path></g><g transform="translate(34.35351320561631 46.015514713365974) rotate(0 0.00004999999998744897 0.00004999999998744897)" stroke="none"><path fill="#f08c00" d="M 3.14,-3.14 Q 3.14,-3.14 3.55,-2.55 3.97,-1.97 4.18,-1.28 4.40,-0.59 4.38,0.11 4.36,0.83 4.11,1.51 3.86,2.18 3.41,2.74 2.96,3.30 2.36,3.69 1.75,4.08 1.05,4.25 0.36,4.42 -0.35,4.36 -1.07,4.31 -1.73,4.02 -2.39,3.74 -2.92,3.26 -3.46,2.78 -3.81,2.15 -4.16,1.53 -4.30,0.82 -4.43,0.11 -4.34,-0.59 -4.24,-1.30 -3.92,-1.94 -3.60,-2.59 -3.09,-3.09 -2.59,-3.60 -1.94,-3.92 -1.30,-4.24 -0.59,-4.34 0.12,-4.43 0.82,-4.30 1.53,-4.16 2.15,-3.81 2.78,-3.46 3.26,-2.92 3.74,-2.39 4.02,-1.73 4.31,-1.07 4.36,-0.35 4.42,0.36 4.25,1.05 4.07,1.75 3.69,2.36 3.30,2.96 2.74,3.41 2.18,3.86 1.51,4.11 0.83,4.36 0.11,4.38 -0.60,4.40 -1.28,4.18 -1.97,3.97 -2.55,3.55 -3.14,3.13 -3.14,3.14 -3.14,3.14 -3.47,2.71 -3.80,2.29 -4.02,1.80 -4.24,1.32 -4.33,0.79 -4.43,0.26 -4.40,-0.26 -4.36,-0.80 -4.20,-1.31 -4.04,-1.82 -3.77,-2.28 -3.49,-2.73 -3.11,-3.11 -2.73,-3.49 -2.28,-3.77 -1.82,-4.05 -1.31,-4.20 -0.80,-4.36 -0.26,-4.40 0.26,-4.43 0.79,-4.33 1.32,-4.24 1.80,-4.02 2.29,-3.80 2.71,-3.47 3.14,-3.14 3.14,-3.14 L 3.14,-3.14 Z"></path></g><g transform="translate(88.59356666461304 61.87029957061122) rotate(0 0.00004999999998744897 0.00004999999998744897)" stroke="none"><path fill="#f08c00" d="M 3.14,-3.14 Q 3.14,-3.14 3.55,-2.55 3.97,-1.97 4.18,-1.28 4.40,-0.59 4.38,0.11 4.36,0.83 4.11,1.51 3.86,2.18 3.41,2.74 2.96,3.30 2.36,3.69 1.75,4.08 1.05,4.25 0.36,4.42 -0.35,4.36 -1.07,4.31 -1.73,4.02 -2.39,3.74 -2.92,3.26 -3.46,2.78 -3.81,2.15 -4.16,1.53 -4.30,0.82 -4.43,0.11 -4.34,-0.59 -4.24,-1.30 -3.92,-1.94 -3.60,-2.59 -3.09,-3.09 -2.59,-3.60 -1.94,-3.92 -1.30,-4.24 -0.59,-4.34 0.12,-4.43 0.82,-4.30 1.53,-4.16 2.15,-3.81 2.78,-3.46 3.26,-2.92 3.74,-2.39 4.02,-1.73 4.31,-1.07 4.36,-0.35 4.42,0.36 4.25,1.05 4.07,1.75 3.69,2.36 3.30,2.96 2.74,3.41 2.18,3.86 1.51,4.11 0.83,4.36 0.11,4.38 -0.60,4.40 -1.28,4.18 -1.97,3.97 -2.55,3.55 -3.14,3.13 -3.14,3.14 -3.14,3.14 -3.47,2.71 -3.80,2.29 -4.02,1.80 -4.24,1.32 -4.33,0.79 -4.43,0.26 -4.40,-0.26 -4.36,-0.80 -4.20,-1.31 -4.04,-1.82 -3.77,-2.28 -3.49,-2.73 -3.11,-3.11 -2.73,-3.49 -2.28,-3.77 -1.82,-4.05 -1.31,-4.20 -0.80,-4.36 -0.26,-4.40 0.26,-4.43 0.79,-4.33 1.32,-4.24 1.80,-4.02 2.29,-3.80 2.71,-3.47 3.14,-3.14 3.14,-3.14 L 3.14,-3.14 Z"></path></g><g transform="translate(90.0955989142467 85.73592309256969) rotate(0 0.00004999999998744897 0.00004999999998744897)" stroke="none"><path fill="#f08c00" d="M 3.14,-3.14 Q 3.14,-3.14 3.55,-2.55 3.97,-1.97 4.18,-1.28 4.40,-0.59 4.38,0.11 4.36,0.83 4.11,1.51 3.86,2.18 3.41,2.74 2.96,3.30 2.36,3.69 1.75,4.08 1.05,4.25 0.36,4.42 -0.35,4.36 -1.07,4.31 -1.73,4.02 -2.39,3.74 -2.92,3.26 -3.46,2.78 -3.81,2.15 -4.16,1.53 -4.30,0.82 -4.43,0.11 -4.34,-0.59 -4.24,-1.30 -3.92,-1.94 -3.60,-2.59 -3.09,-3.09 -2.59,-3.60 -1.94,-3.92 -1.30,-4.24 -0.59,-4.34 0.12,-4.43 0.82,-4.30 1.53,-4.16 2.15,-3.81 2.78,-3.46 3.26,-2.92 3.74,-2.39 4.02,-1.73 4.31,-1.07 4.36,-0.35 4.42,0.36 4.25,1.05 4.07,1.75 3.69,2.36 3.30,2.96 2.74,3.41 2.18,3.86 1.51,4.11 0.83,4.36 0.11,4.38 -0.60,4.40 -1.28,4.18 -1.97,3.97 -2.55,3.55 -3.14,3.13 -3.14,3.14 -3.14,3.14 -3.47,2.71 -3.80,2.29 -4.02,1.80 -4.24,1.32 -4.33,0.79 -4.43,0.26 -4.40,-0.26 -4.36,-0.80 -4.20,-1.31 -4.04,-1.82 -3.77,-2.28 -3.49,-2.73 -3.11,-3.11 -2.73,-3.49 -2.28,-3.77 -1.82,-4.05 -1.31,-4.20 -0.80,-4.36 -0.26,-4.40 0.26,-4.43 0.79,-4.33 1.32,-4.24 1.80,-4.02 2.29,-3.80 2.71,-3.47 3.14,-3.14 3.14,-3.14 L 3.14,-3.14 Z"></path></g></svg>