<svg version="1.1" xmlns="http://www.w3.org/2000/svg" viewBox="0 0 64.96912771623306 99.83649485852976" width="129.93825543246612" height="199.67298971705952">
  <!-- svg-source:excalidraw -->
  
  <defs>
    <style class="style-fonts">
      
    </style>
    
  </defs>
  <g stroke-linecap="round"><g transform="translate(43.88977740933501 10.651726488641032) rotate(0 -12.545734906340385 28.187170633725827)" fill-rule="evenodd"><path d="M-0.84 1.24 L-16.55 9.64 L-23.31 54.9 L-17.36 58.22 L-1.97 0.28" stroke="none" stroke-width="0" fill="#ffec99" fill-rule="evenodd"></path><path d="M0 0 C-5.2 4.38, -9.7 6.85, -15.97 10.1 M0 0 C-6.78 3.28, -12.68 7.57, -15.97 10.1 M-15.97 10.1 C-19.5 21.93, -22.42 32.78, -25.09 53.12 M-15.97 10.1 C-20.11 24.51, -22.39 38.92, -25.09 53.12 M-25.09 53.12 C-22.87 54.21, -20.75 54.1, -15.64 56.37 M-25.09 53.12 C-21.68 54.24, -17.5 55.54, -15.64 56.37 M-15.64 56.37 C-13.75 46.64, -8.77 32.02, 0 0 M-15.64 56.37 C-12.93 45.33, -9.08 31.63, 0 0 M0 0 C0 0, 0 0, 0 0 M0 0 C0 0, 0 0, 0 0" stroke="#f08c00" stroke-width="2" fill="none"></path></g></g><mask></mask><g stroke-linecap="round"><g transform="translate(43.88977740933501 10) rotate(0 -2.118111088083424 29.65355523316819)" fill-rule="evenodd"><path d="M-1.42 0.73 L9.26 17.49 L-8.71 57.62 L-14.99 55.56 L-0.94 2.42" stroke="none" stroke-width="0" fill="#fab005" fill-rule="evenodd"></path><path d="M0 0 C0.22 2.37, 4.24 5.42, 11.08 17.27 M0 0 C2.69 4.65, 7.62 10.96, 11.08 17.27 M11.08 17.27 C4.11 32.75, -2.44 48.89, -6.84 59.31 M11.08 17.27 C4.74 34.1, -2.32 49.07, -6.84 59.31 M-6.84 59.31 C-9.69 58.33, -13.86 57.64, -15.32 57.35 M-6.84 59.31 C-9.77 58.55, -12.49 58.38, -15.32 57.35 M-15.32 57.35 C-11.22 45.74, -7.65 30.72, -1.3 3.26 M-15.32 57.35 C-11.52 42.8, -7.62 30.24, -1.3 3.26 M-1.3 3.26 C-0.84 2.7, -0.6 1.6, 0 0 M-1.3 3.26 C-0.93 2.75, -0.61 1.95, 0 0" stroke="#f08c00" stroke-width="2" fill="none"></path></g></g><mask></mask><g stroke-linecap="round"><g transform="translate(10 62.13811909128475) rotate(0 18.90006817059077 6.0284700199297845)"><path d="M0 0 C14.75 5.62, 29.09 9.74, 37.8 12.06 M0 0 C13.43 4.42, 26.48 8.6, 37.8 12.06" stroke="#f08c00" stroke-width="2" fill="none"></path></g></g><mask></mask><g stroke-linecap="round"><g transform="translate(21.07935030689805 67.67779424473372) rotate(0 3.095700821044943 11.079350306898021)" fill-rule="evenodd"><path d="M-0.74 0.12 L-3.81 17.46 L4.87 22.83 L11.25 2.76 L0.07 -0.34" stroke="none" stroke-width="0" fill="#ffec99" fill-rule="evenodd"></path><path d="M0 0 C-1.42 7.15, -3.34 13.49, -4.24 18.25 M0 0 C-0.43 3.3, -1.91 6.89, -4.24 18.25 M-4.24 18.25 C-2.46 19.11, -0.58 20.02, 5.21 22.16 M-4.24 18.25 C-1.48 19.33, 1.44 20.7, 5.21 22.16 M5.21 22.16 C6.46 16.25, 9.58 8.37, 10.43 2.61 M5.21 22.16 C6.05 18.35, 7.8 14.03, 10.43 2.61 M10.43 2.61 C8.23 2.2, 5.07 1.29, 0 0 M10.43 2.61 C6.77 1.46, 3.63 0.59, 0 0 M0 0 C0 0, 0 0, 0 0 M0 0 C0 0, 0 0, 0 0" stroke="#f08c00" stroke-width="2" fill="none"></path></g></g><mask></mask></svg>