<svg version="1.1" xmlns="http://www.w3.org/2000/svg" viewBox="0 0 95.60027268236263 101.46581108013237" width="191.20054536472526" height="202.93162216026474">
  <!-- svg-source:excalidraw -->
  
  <defs>
    <style class="style-fonts">
      
    </style>
    
  </defs>
  <g stroke-linecap="round"><g transform="translate(19.775897329615646 10) rotate(0 11.242281929058436 40.732905540066184)" fill-rule="evenodd"><path d="M-1.04 -0.78 L32.41 3.29 L19.43 82.23 L-9.36 57.37 L1.25 -1.31" stroke="none" stroke-width="0" fill="#ffec99" fill-rule="evenodd"></path><path d="M0 0 C9.52 1.91, 19.11 1.33, 32.26 1.63 M0 0 C8.04 0.86, 14.92 -0.02, 32.26 1.63 M32.26 1.63 C27.62 27.87, 25.52 55.71, 19.55 81.47 M32.26 1.63 C26.88 29.94, 23.29 59.24, 19.55 81.47 M19.55 81.47 C12.14 73, 2.03 63.89, -9.78 55.4 M19.55 81.47 C10.02 73.6, 0.18 63.82, -9.78 55.4 M-9.78 55.4 C-7.8 34.16, -4.56 14.06, 0 0 M-9.78 55.4 C-5.4 33.85, -2.16 10.36, 0 0 M0 0 C0 0, 0 0, 0 0 M0 0 C0 0, 0 0, 0 0" stroke="#f08c00" stroke-width="2" fill="none"></path></g></g><mask></mask><g stroke-linecap="round"><g transform="translate(52.36222176166848 11.629316221602608) rotate(0 9.612965707455714 39.75531580710464)" fill-rule="evenodd"><path d="M-0.03 -1.97 L35.1 15.86 L17.91 68.9 L-13.7 77.6 L-0.81 1.81" stroke="none" stroke-width="0" fill="#fab005" fill-rule="evenodd"></path><path d="M0 0 C12.16 4.11, 23.52 8.1, 33.24 14.01 M0 0 C7.05 3.45, 13.31 7.07, 33.24 14.01 M33.24 14.01 C27.57 27.89, 26.03 38.2, 16.94 68.76 M33.24 14.01 C29.39 27.45, 25.68 43.31, 16.94 68.76 M16.94 68.76 C7.16 71.02, -1.27 73.6, -14.01 79.51 M16.94 68.76 C9.39 71.22, 0.54 73.8, -14.01 79.51 M-14.01 79.51 C-9.92 59.02, -5.89 42.34, 0 0 M-14.01 79.51 C-9.63 57.92, -6.12 37.05, 0 0 M0 0 C0 0, 0 0, 0 0 M0 0 C0 0, 0 0, 0 0" stroke="#f08c00" stroke-width="2" fill="none"></path></g></g><mask></mask></svg>