<svg version="1.1" xmlns="http://www.w3.org/2000/svg" viewBox="0 0 113.24559527637871 127.1925777821873" width="226.49119055275742" height="254.3851555643746">
  <!-- svg-source:excalidraw -->
  
  <defs>
    <style class="style-fonts">
      
    </style>
    
  </defs>
  <g stroke-linecap="round"><g transform="translate(69.64727407437499 38.007809412298684) rotate(0 -12.545734906340385 28.187170633725827)" fill-rule="evenodd"><path d="M1.1 0.61 L-14.88 9.79 L-23.27 51.45 L-16.88 55.7 L-1.65 -0.98" stroke="none" stroke-width="0" fill="#ffec99" fill-rule="evenodd"></path><path d="M0 0 C-2.49 2.65, -8.54 5.2, -15.97 10.1 M0 0 C-5.97 3.02, -10.5 6.49, -15.97 10.1 M-15.97 10.1 C-17.59 18.12, -18.55 27.26, -25.09 53.12 M-15.97 10.1 C-16.98 20.17, -19.21 29.33, -25.09 53.12 M-25.09 53.12 C-23.15 53.16, -19.88 55.31, -15.64 56.37 M-25.09 53.12 C-21.16 54.54, -18.49 55.2, -15.64 56.37 M-15.64 56.37 C-11.93 41.29, -6.86 25.33, 0 0 M-15.64 56.37 C-11.75 41.81, -6.1 25.9, 0 0 M0 0 C0 0, 0 0, 0 0 M0 0 C0 0, 0 0, 0 0" stroke="#f08c00" stroke-width="2" fill="none"></path></g></g><mask></mask><g stroke-linecap="round"><g transform="translate(69.64727407437499 37.356082923657596) rotate(0 -2.118111088083424 29.653555233168163)" fill-rule="evenodd"><path d="M1.09 -0.31 L12.9 15.61 L-8.08 58.63 L-16.97 56.37 L0.61 4.69" stroke="none" stroke-width="0" fill="#fab005" fill-rule="evenodd"></path><path d="M0 0 C2.2 5.25, 6.57 8.6, 11.08 17.27 M0 0 C2.34 4.87, 4.92 10.18, 11.08 17.27 M11.08 17.27 C7.62 26.3, 0.93 39.6, -6.84 59.31 M11.08 17.27 C5.69 31.23, -1.63 46.17, -6.84 59.31 M-6.84 59.31 C-8.47 59.2, -10.34 58.27, -15.32 57.35 M-6.84 59.31 C-8.97 58.57, -10.58 58.75, -15.32 57.35 M-15.32 57.35 C-11.27 43.81, -8.73 29.1, -1.3 3.26 M-15.32 57.35 C-9.59 39.62, -4.77 20.04, -1.3 3.26 M-1.3 3.26 C-1.34 2.57, -0.85 1.72, 0 0 M-1.3 3.26 C-0.82 2.49, -0.5 1.47, 0 0" stroke="#f08c00" stroke-width="2" fill="none"></path></g></g><mask></mask><g stroke-linecap="round"><g transform="translate(35.75749666503998 89.4942020149424) rotate(0 18.90006817059077 6.0284700199297845)"><path d="M0 0 C12 3.24, 23.45 6.58, 37.8 12.06 M0 0 C10.49 3.9, 21.61 6.93, 37.8 12.06" stroke="#f08c00" stroke-width="2" fill="none"></path></g></g><mask></mask><g stroke-linecap="round"><g transform="translate(46.83684697193803 95.03387716839131) rotate(0 3.095700821044943 11.079350306897993)" fill-rule="evenodd"><path d="M-0.62 -0.34 L-5.06 17.76 L6.17 22.87 L11.2 2.81 L-0.04 0.86" stroke="none" stroke-width="0" fill="#ffec99" fill-rule="evenodd"></path><path d="M0 0 C-1.64 4.96, -2.81 11.31, -4.24 18.25 M0 0 C-1.7 5.88, -3.07 11.98, -4.24 18.25 M-4.24 18.25 C-1.71 19.51, 0.37 20.4, 5.21 22.16 M-4.24 18.25 C-2.25 19.05, -0.17 20.17, 5.21 22.16 M5.21 22.16 C6.1 16.22, 9.08 7.77, 10.43 2.61 M5.21 22.16 C6.14 17.77, 7.64 13.65, 10.43 2.61 M10.43 2.61 C7.48 1.4, 4.67 1.34, 0 0 M10.43 2.61 C6.46 1.87, 3.28 0.5, 0 0 M0 0 C0 0, 0 0, 0 0 M0 0 C0 0, 0 0, 0 0" stroke="#f08c00" stroke-width="2" fill="none"></path></g></g><mask></mask><g stroke-linecap="round"><g transform="translate(12.512078159898692 62.71338943850651) rotate(349.99202019855824 43.801153831179136 -22.807136744339402)" fill-rule="evenodd"><path d="M0 0 L87.6 -0.95 L86.65 -45.61 L68.6 -17.3 L43.06 -43.86 L22.52 -15.08 L0.19 -42.18 L0 -1.91" stroke="none" stroke-width="0" fill="#fff9db" fill-rule="evenodd"></path><path d="M0 0 C25.28 -0.28, 50.56 -0.55, 87.6 -0.95 M0 0 C23.26 -0.25, 46.51 -0.51, 87.6 -0.95 M87.6 -0.95 C87.4 -10.28, 87.2 -19.6, 86.65 -45.61 M87.6 -0.95 C87.38 -11.24, 87.16 -21.52, 86.65 -45.61 M86.65 -45.61 C82.16 -38.58, 77.68 -31.54, 68.6 -17.3 M86.65 -45.61 C81.55 -37.61, 76.45 -29.6, 68.6 -17.3 M68.6 -17.3 C63.38 -22.73, 58.16 -28.16, 43.06 -43.86 M68.6 -17.3 C58.57 -27.73, 48.54 -38.16, 43.06 -43.86 M43.06 -43.86 C35.86 -33.76, 28.66 -23.67, 22.52 -15.08 M43.06 -43.86 C37.8 -36.49, 32.54 -29.12, 22.52 -15.08 M22.52 -15.08 C13.97 -25.46, 5.41 -35.84, 0.19 -42.18 M22.52 -15.08 C16.96 -21.83, 11.39 -28.59, 0.19 -42.18 M0.19 -42.18 C0.12 -27.56, 0.05 -12.93, 0 -1.91 M0.19 -42.18 C0.12 -26.6, 0.04 -11.02, 0 -1.91 M0 -1.91 C0 -1.41, 0 -0.91, 0 0 M0 -1.91 C0 -1.38, 0 -0.85, 0 0" stroke="#ffd43b" stroke-width="2" fill="none"></path></g></g><mask></mask><g stroke-linecap="round" transform="translate(48.774471309894125 32.176637312194316) rotate(0 8.397606834735882 8.397606834735882)"><path d="M16.8 8.4 C16.8 8.88, 16.75 9.38, 16.67 9.86 C16.58 10.33, 16.46 10.81, 16.29 11.27 C16.12 11.73, 15.91 12.18, 15.67 12.6 C15.43 13.02, 15.14 13.42, 14.83 13.8 C14.52 14.17, 14.17 14.52, 13.8 14.83 C13.42 15.14, 13.02 15.43, 12.6 15.67 C12.18 15.91, 11.73 16.12, 11.27 16.29 C10.81 16.46, 10.33 16.58, 9.86 16.67 C9.38 16.75, 8.88 16.8, 8.4 16.8 C7.91 16.8, 7.42 16.75, 6.94 16.67 C6.46 16.58, 5.98 16.46, 5.53 16.29 C5.07 16.12, 4.62 15.91, 4.2 15.67 C3.78 15.43, 3.37 15.14, 3 14.83 C2.63 14.52, 2.28 14.17, 1.96 13.8 C1.65 13.42, 1.37 13.02, 1.13 12.6 C0.88 12.18, 0.67 11.73, 0.51 11.27 C0.34 10.81, 0.21 10.33, 0.13 9.86 C0.04 9.38, 0 8.88, 0 8.4 C0 7.91, 0.04 7.42, 0.13 6.94 C0.21 6.46, 0.34 5.98, 0.51 5.53 C0.67 5.07, 0.88 4.62, 1.13 4.2 C1.37 3.78, 1.65 3.37, 1.96 3 C2.28 2.63, 2.63 2.28, 3 1.96 C3.37 1.65, 3.78 1.37, 4.2 1.13 C4.62 0.88, 5.07 0.67, 5.53 0.51 C5.98 0.34, 6.46 0.21, 6.94 0.13 C7.42 0.04, 7.91 0, 8.4 0 C8.88 0, 9.38 0.04, 9.86 0.13 C10.33 0.21, 10.81 0.34, 11.27 0.51 C11.73 0.67, 12.18 0.88, 12.6 1.13 C13.02 1.37, 13.42 1.65, 13.8 1.96 C14.17 2.28, 14.52 2.63, 14.83 3 C15.14 3.37, 15.43 3.78, 15.67 4.2 C15.91 4.62, 16.12 5.07, 16.29 5.53 C16.46 5.98, 16.58 6.46, 16.67 6.94 C16.75 7.42, 16.77 8.15, 16.8 8.4 C16.82 8.64, 16.82 8.15, 16.8 8.4" stroke="none" stroke-width="0" fill="#ffc9c9"></path><path d="M16.8 8.4 C16.8 8.88, 16.75 9.38, 16.67 9.86 C16.58 10.33, 16.46 10.81, 16.29 11.27 C16.12 11.73, 15.91 12.18, 15.67 12.6 C15.43 13.02, 15.14 13.42, 14.83 13.8 C14.52 14.17, 14.17 14.52, 13.8 14.83 C13.42 15.14, 13.02 15.43, 12.6 15.67 C12.18 15.91, 11.73 16.12, 11.27 16.29 C10.81 16.46, 10.33 16.58, 9.86 16.67 C9.38 16.75, 8.88 16.8, 8.4 16.8 C7.91 16.8, 7.42 16.75, 6.94 16.67 C6.46 16.58, 5.98 16.46, 5.53 16.29 C5.07 16.12, 4.62 15.91, 4.2 15.67 C3.78 15.43, 3.37 15.14, 3 14.83 C2.63 14.52, 2.28 14.17, 1.96 13.8 C1.65 13.42, 1.37 13.02, 1.13 12.6 C0.88 12.18, 0.67 11.73, 0.51 11.27 C0.34 10.81, 0.21 10.33, 0.13 9.86 C0.04 9.38, 0 8.88, 0 8.4 C0 7.91, 0.04 7.42, 0.13 6.94 C0.21 6.46, 0.34 5.98, 0.51 5.53 C0.67 5.07, 0.88 4.62, 1.13 4.2 C1.37 3.78, 1.65 3.37, 1.96 3 C2.28 2.63, 2.63 2.28, 3 1.96 C3.37 1.65, 3.78 1.37, 4.2 1.13 C4.62 0.88, 5.07 0.67, 5.53 0.51 C5.98 0.34, 6.46 0.21, 6.94 0.13 C7.42 0.04, 7.91 0, 8.4 0 C8.88 0, 9.38 0.04, 9.86 0.13 C10.33 0.21, 10.81 0.34, 11.27 0.51 C11.73 0.67, 12.18 0.88, 12.6 1.13 C13.02 1.37, 13.42 1.65, 13.8 1.96 C14.17 2.28, 14.52 2.63, 14.83 3 C15.14 3.37, 15.43 3.78, 15.67 4.2 C15.91 4.62, 16.12 5.07, 16.29 5.53 C16.46 5.98, 16.58 6.46, 16.67 6.94 C16.75 7.42, 16.77 8.15, 16.8 8.4 C16.82 8.64, 16.82 8.15, 16.8 8.4" stroke="#e03131" stroke-width="2" fill="none"></path></g></svg>