<svg version="1.1" xmlns="http://www.w3.org/2000/svg" viewBox="0 0 96.90647759135868 97.82754583989669" width="96.90647759135868" height="97.82754583989669" filter="invert(93%) hue-rotate(180deg)">
  <!-- svg-source:excalidraw -->
  
  <defs>
    <style class="style-fonts">
      
    </style>
    
  </defs>
  <g stroke-linecap="round"><g transform="translate(40.92253518404732 41.6964405565019) rotate(0 7.5307036116320205 10.463012982533144)" fill-rule="evenodd"><path d="M1.05 -0.42 L-31.11 -10.56 L-3.03 13.57 L-12.52 41.36 L6.26 17.44 L45.83 23.37 L14.13 8.97 L25.14 -19.72 L0.38 0.88" stroke="none" stroke-width="0" fill="#e8590c" fill-rule="evenodd"></path><path d="M0 0 C-9.14 -4.25, -21.73 -7.79, -30.92 -9.2 M0 0 C-9.11 -3.28, -17.59 -5.08, -30.92 -9.2 M-30.92 -9.2 C-22.78 -1.92, -16.25 1.92, -4.8 11.86 M-30.92 -9.2 C-24.93 -4.2, -17.17 1.47, -4.8 11.86 M-4.8 11.86 C-7.73 22.01, -8.94 31.57, -12.8 41.72 M-4.8 11.86 C-8.12 23.57, -10.11 35.35, -12.8 41.72 M-12.8 41.72 C-8.36 36.59, -1.97 30.19, 6.13 17.99 M-12.8 41.72 C-5.84 32.36, 1.25 24.67, 6.13 17.99 M6.13 17.99 C20.72 18.12, 35.32 20.65, 45.98 24.39 M6.13 17.99 C17.83 20.96, 30.43 21.64, 45.98 24.39 M45.98 24.39 C34.04 19.57, 22.17 13.39, 14.13 9.33 M45.98 24.39 C34.45 18.66, 22.1 12.55, 14.13 9.33 M14.13 9.33 C18.98 -2.47, 20.09 -10.06, 23.59 -20.79 M14.13 9.33 C16.43 2.22, 17.63 -2.69, 23.59 -20.79 M23.59 -20.79 C19 -15.69, 15.64 -12.27, 2.27 -0.93 M23.59 -20.79 C14.75 -12.33, 6.54 -4.73, 2.27 -0.93 M2.27 -0.93 C1.29 -0.58, 0.53 -0.15, 0 0 M2.27 -0.93 C1.42 -0.51, 0.41 -0.11, 0 0" stroke="#fd7e14" stroke-width="4" fill="none"></path></g></g><mask></mask><g stroke-linecap="round"><g transform="translate(39.32309370901021 40.496859450224235) rotate(44.438294667433304 7.5307036116320205 10.463012982533144)" fill-rule="evenodd"><path d="M0.28 0.17 L-32.67 -7.63 L-3.17 10.71 L-13.33 42.67 L7.77 19.63 L47.11 22.49 L12.48 9.06 L23.04 -22.03 L2.89 -1.95" stroke="none" stroke-width="0" fill="#c2255c" fill-rule="evenodd"></path><path d="M0 0 C-11.47 -4.65, -21.02 -7.99, -30.92 -9.2 M0 0 C-9.97 -2.16, -20.84 -5.71, -30.92 -9.2 M-30.92 -9.2 C-22.38 -3.24, -19.53 2.37, -4.8 11.86 M-30.92 -9.2 C-22.44 -3.61, -15.66 3.01, -4.8 11.86 M-4.8 11.86 C-6.62 18.23, -8.19 25.18, -12.8 41.72 M-4.8 11.86 C-8.71 23.65, -10.86 36.08, -12.8 41.72 M-12.8 41.72 C-9.13 36.18, -4.01 32.67, 6.13 17.99 M-12.8 41.72 C-6.32 34.84, -1.36 26.13, 6.13 17.99 M6.13 17.99 C20.84 20.24, 31.76 21.36, 45.98 24.39 M6.13 17.99 C18.21 19.89, 30.52 21.19, 45.98 24.39 M45.98 24.39 C37.66 20.17, 30.98 18.01, 14.13 9.33 M45.98 24.39 C34.05 18.02, 20 12.32, 14.13 9.33 M14.13 9.33 C15.35 0.44, 20.49 -8.06, 23.59 -20.79 M14.13 9.33 C18.25 -2.59, 22.18 -14.41, 23.59 -20.79 M23.59 -20.79 C18.05 -13.12, 11.61 -6.05, 2.27 -0.93 M23.59 -20.79 C18.86 -15.62, 13.17 -11.09, 2.27 -0.93 M2.27 -0.93 C1.36 -0.75, 0.67 -0.36, 0 0 M2.27 -0.93 C1.65 -0.71, 0.94 -0.28, 0 0" stroke="#e8590c" stroke-width="4" fill="none"></path></g></g><mask></mask></svg>