<svg version="1.1" xmlns="http://www.w3.org/2000/svg" viewBox="0 0 58.72734670193108 85.58916213746215" width="58.72734670193108" height="85.58916213746215" filter="invert(93%) hue-rotate(180deg)">
  <!-- svg-source:excalidraw -->
  
  <defs>
    <style class="style-fonts">
      
    </style>
    
  </defs>
  <g stroke-linecap="round"><g transform="translate(10.523146577705802 13.081024444583477) rotate(0 8.55247462280704 29.0325999698004)" fill-rule="evenodd"><path d="M1.72 -0.46 L17.77 -2 L18.37 60.8 L1.11 42.26 L-0.26 1.13" stroke="none" stroke-width="0" fill="#fd7e14" fill-rule="evenodd"></path><path d="M0 0 C7.23 -0.87, 14.66 -2.33, 17.59 -3.02 M0 0 C6.85 -0.56, 13.73 -2.01, 17.59 -3.02 M17.59 -3.02 C17.86 19.56, 16.59 37.74, 16.75 61.08 M17.59 -3.02 C17.12 18.8, 17.19 39.58, 16.75 61.08 M16.75 61.08 C13.7 56.58, 8.87 52.91, -0.25 42.25 M16.75 61.08 C12.43 57.26, 9.49 54.63, -0.25 42.25 M-0.25 42.25 C1.37 32.06, -1.68 20.81, 0 0 M-0.25 42.25 C0.08 26.28, -1.13 9.44, 0 0 M0 0 C0 0, 0 0, 0 0 M0 0 C0 0, 0 0, 0 0" stroke="#e8590c" stroke-width="4" fill="none"></path></g></g><mask></mask><g stroke-linecap="round"><g transform="translate(27.91590474206737 10) rotate(0 10.021123754531231 32.79458106873108)" fill-rule="evenodd"><path d="M1.77 -0.24 L20.43 3.28 L19.75 45.94 L0.75 66.27 L1.21 2.35" stroke="none" stroke-width="0" fill="#e8590c" fill-rule="evenodd"></path><path d="M0 0 C6.93 0.4, 10.62 3.38, 20.8 4.02 M0 0 C7.41 0.74, 15.67 4.02, 20.8 4.02 M20.8 4.02 C18.02 20.35, 18.3 39.04, 18.75 47.14 M20.8 4.02 C20.88 13.86, 20.41 23.49, 18.75 47.14 M18.75 47.14 C11.97 54.62, 4.28 59.62, -0.6 65.59 M18.75 47.14 C11.73 54.51, 5.75 59.63, -0.6 65.59 M-0.6 65.59 C-1.5 46.09, 1.52 31.12, -0.32 1.72 M-0.6 65.59 C-0.18 45.35, -0.76 25.87, -0.32 1.72 M-0.32 1.72 C-0.19 1.01, -0.18 0.44, 0 0 M-0.32 1.72 C-0.2 1.1, -0.15 0.52, 0 0" stroke="#fd7e14" stroke-width="4" fill="none"></path></g></g><mask></mask></svg>