<svg version="1.1" xmlns="http://www.w3.org/2000/svg" viewBox="0 0 113.24559527637871 142.06907874548676" width="113.24559527637871" height="142.06907874548676">
  <!-- svg-source:excalidraw -->
  
  <defs>
    <style class="style-fonts">
      
    </style>
    
  </defs>
  <g stroke-linecap="round"><g transform="translate(33.69777257989722 50.60326766535445) rotate(0 11.242281929058436 40.732905540066156)" fill-rule="evenodd"><path d="M-1.04 -0.78 L32.41 3.29 L19.43 82.23 L-9.36 57.37 L1.25 -1.31" stroke="none" stroke-width="0" fill="#ffec99" fill-rule="evenodd"></path><path d="M0 0 C9.52 1.91, 19.11 1.33, 32.26 1.63 M0 0 C8.04 0.86, 14.92 -0.02, 32.26 1.63 M32.26 1.63 C27.62 27.87, 25.52 55.71, 19.55 81.47 M32.26 1.63 C26.88 29.94, 23.29 59.24, 19.55 81.47 M19.55 81.47 C12.14 73, 2.03 63.89, -9.78 55.4 M19.55 81.47 C10.02 73.6, 0.18 63.82, -9.78 55.4 M-9.78 55.4 C-7.8 34.16, -4.56 14.06, 0 0 M-9.78 55.4 C-5.4 33.85, -2.16 10.36, 0 0 M0 0 C0 0, 0 0, 0 0 M0 0 C0 0, 0 0, 0 0" stroke="#f08c00" stroke-width="2" fill="none"></path></g></g><mask></mask><g stroke-linecap="round"><g transform="translate(66.28409701195005 52.232583886956945) rotate(0 9.612965707455714 39.75531580710464)" fill-rule="evenodd"><path d="M-0.03 -1.97 L35.1 15.86 L17.91 68.9 L-13.7 77.6 L-0.81 1.81" stroke="none" stroke-width="0" fill="#fab005" fill-rule="evenodd"></path><path d="M0 0 C12.16 4.11, 23.52 8.1, 33.24 14.01 M0 0 C7.05 3.45, 13.31 7.07, 33.24 14.01 M33.24 14.01 C27.57 27.89, 26.03 38.2, 16.94 68.76 M33.24 14.01 C29.39 27.45, 25.68 43.31, 16.94 68.76 M16.94 68.76 C7.16 71.02, -1.27 73.6, -14.01 79.51 M16.94 68.76 C9.39 71.22, 0.54 73.8, -14.01 79.51 M-14.01 79.51 C-9.92 59.02, -5.89 42.34, 0 0 M-14.01 79.51 C-9.63 57.92, -6.12 37.05, 0 0 M0 0 C0 0, 0 0, 0 0 M0 0 C0 0, 0 0, 0 0" stroke="#f08c00" stroke-width="2" fill="none"></path></g></g><mask></mask><g stroke-linecap="round"><g transform="translate(12.512078159898692 62.71338943850651) rotate(349.99202019855824 43.801153831179136 -22.807136744339402)" fill-rule="evenodd"><path d="M0 0 L87.6 -0.95 L86.65 -45.61 L68.6 -17.3 L43.06 -43.86 L22.52 -15.08 L0.19 -42.18 L0 -1.91" stroke="none" stroke-width="0" fill="#fff9db" fill-rule="evenodd"></path><path d="M0 0 C25.28 -0.28, 50.56 -0.55, 87.6 -0.95 M0 0 C23.26 -0.25, 46.51 -0.51, 87.6 -0.95 M87.6 -0.95 C87.4 -10.28, 87.2 -19.6, 86.65 -45.61 M87.6 -0.95 C87.38 -11.24, 87.16 -21.52, 86.65 -45.61 M86.65 -45.61 C82.16 -38.58, 77.68 -31.54, 68.6 -17.3 M86.65 -45.61 C81.55 -37.61, 76.45 -29.6, 68.6 -17.3 M68.6 -17.3 C63.38 -22.73, 58.16 -28.16, 43.06 -43.86 M68.6 -17.3 C58.57 -27.73, 48.54 -38.16, 43.06 -43.86 M43.06 -43.86 C35.86 -33.76, 28.66 -23.67, 22.52 -15.08 M43.06 -43.86 C37.8 -36.49, 32.54 -29.12, 22.52 -15.08 M22.52 -15.08 C13.97 -25.46, 5.41 -35.84, 0.19 -42.18 M22.52 -15.08 C16.96 -21.83, 11.39 -28.59, 0.19 -42.18 M0.19 -42.18 C0.12 -27.56, 0.05 -12.93, 0 -1.91 M0.19 -42.18 C0.12 -26.6, 0.04 -11.02, 0 -1.91 M0 -1.91 C0 -1.41, 0 -0.91, 0 0 M0 -1.91 C0 -1.38, 0 -0.85, 0 0" stroke="#ffd43b" stroke-width="2" fill="none"></path></g></g><mask></mask><g stroke-linecap="round" transform="translate(48.774471309894125 32.176637312194316) rotate(0 8.397606834735825 8.397606834735882)"><path d="M16.8 8.4 C16.8 8.88, 16.75 9.38, 16.67 9.86 C16.58 10.33, 16.46 10.81, 16.29 11.27 C16.12 11.73, 15.91 12.18, 15.67 12.6 C15.43 13.02, 15.14 13.42, 14.83 13.8 C14.52 14.17, 14.17 14.52, 13.8 14.83 C13.42 15.14, 13.02 15.43, 12.6 15.67 C12.18 15.91, 11.73 16.12, 11.27 16.29 C10.81 16.46, 10.33 16.58, 9.86 16.67 C9.38 16.75, 8.88 16.8, 8.4 16.8 C7.91 16.8, 7.42 16.75, 6.94 16.67 C6.46 16.58, 5.98 16.46, 5.53 16.29 C5.07 16.12, 4.62 15.91, 4.2 15.67 C3.78 15.43, 3.37 15.14, 3 14.83 C2.63 14.52, 2.28 14.17, 1.96 13.8 C1.65 13.42, 1.37 13.02, 1.13 12.6 C0.88 12.18, 0.67 11.73, 0.51 11.27 C0.34 10.81, 0.21 10.33, 0.13 9.86 C0.04 9.38, 0 8.88, 0 8.4 C0 7.91, 0.04 7.42, 0.13 6.94 C0.21 6.46, 0.34 5.98, 0.51 5.53 C0.67 5.07, 0.88 4.62, 1.13 4.2 C1.37 3.78, 1.65 3.37, 1.96 3 C2.28 2.63, 2.63 2.28, 3 1.96 C3.37 1.65, 3.78 1.37, 4.2 1.13 C4.62 0.88, 5.07 0.67, 5.53 0.51 C5.98 0.34, 6.46 0.21, 6.94 0.13 C7.42 0.04, 7.91 0, 8.4 0 C8.88 0, 9.38 0.04, 9.86 0.13 C10.33 0.21, 10.81 0.34, 11.27 0.51 C11.73 0.67, 12.18 0.88, 12.6 1.13 C13.02 1.37, 13.42 1.65, 13.8 1.96 C14.17 2.28, 14.52 2.63, 14.83 3 C15.14 3.37, 15.43 3.78, 15.67 4.2 C15.91 4.62, 16.12 5.07, 16.29 5.53 C16.46 5.98, 16.58 6.46, 16.67 6.94 C16.75 7.42, 16.77 8.15, 16.8 8.4 C16.82 8.64, 16.82 8.15, 16.8 8.4" stroke="none" stroke-width="0" fill="#ffc9c9"></path><path d="M16.8 8.4 C16.8 8.88, 16.75 9.38, 16.67 9.86 C16.58 10.33, 16.46 10.81, 16.29 11.27 C16.12 11.73, 15.91 12.18, 15.67 12.6 C15.43 13.02, 15.14 13.42, 14.83 13.8 C14.52 14.17, 14.17 14.52, 13.8 14.83 C13.42 15.14, 13.02 15.43, 12.6 15.67 C12.18 15.91, 11.73 16.12, 11.27 16.29 C10.81 16.46, 10.33 16.58, 9.86 16.67 C9.38 16.75, 8.88 16.8, 8.4 16.8 C7.91 16.8, 7.42 16.75, 6.94 16.67 C6.46 16.58, 5.98 16.46, 5.53 16.29 C5.07 16.12, 4.62 15.91, 4.2 15.67 C3.78 15.43, 3.37 15.14, 3 14.83 C2.63 14.52, 2.28 14.17, 1.96 13.8 C1.65 13.42, 1.37 13.02, 1.13 12.6 C0.88 12.18, 0.67 11.73, 0.51 11.27 C0.34 10.81, 0.21 10.33, 0.13 9.86 C0.04 9.38, 0 8.88, 0 8.4 C0 7.91, 0.04 7.42, 0.13 6.94 C0.21 6.46, 0.34 5.98, 0.51 5.53 C0.67 5.07, 0.88 4.62, 1.13 4.2 C1.37 3.78, 1.65 3.37, 1.96 3 C2.28 2.63, 2.63 2.28, 3 1.96 C3.37 1.65, 3.78 1.37, 4.2 1.13 C4.62 0.88, 5.07 0.67, 5.53 0.51 C5.98 0.34, 6.46 0.21, 6.94 0.13 C7.42 0.04, 7.91 0, 8.4 0 C8.88 0, 9.38 0.04, 9.86 0.13 C10.33 0.21, 10.81 0.34, 11.27 0.51 C11.73 0.67, 12.18 0.88, 12.6 1.13 C13.02 1.37, 13.42 1.65, 13.8 1.96 C14.17 2.28, 14.52 2.63, 14.83 3 C15.14 3.37, 15.43 3.78, 15.67 4.2 C15.91 4.62, 16.12 5.07, 16.29 5.53 C16.46 5.98, 16.58 6.46, 16.67 6.94 C16.75 7.42, 16.77 8.15, 16.8 8.4 C16.82 8.64, 16.82 8.15, 16.8 8.4" stroke="#e03131" stroke-width="2" fill="none"></path></g></svg>