<svg version="1.1" xmlns="http://www.w3.org/2000/svg" viewBox="0 0 114.3945993630391 104.1980727076504" width="114.3945993630391" height="104.1980727076504">
  <!-- svg-source:excalidraw -->
  
  <defs>
    <style class="style-fonts">
      
    </style>
    
  </defs>
  <g stroke-linecap="round"><g transform="translate(12.5856331112318 40.27676122818667) rotate(0 45.3080977216224 -5.474954849069945)" fill-rule="evenodd"><path d="M1.71 2.21 C7.44 4.89, 21.83 13.69, 36.57 15.99 C51.31 18.3, 83.15 21.51, 90.16 16.05 C97.18 10.58, 86.62 -9.32, 78.64 -16.8 C70.67 -24.28, 54.03 -29.01, 42.32 -28.86 C30.6 -28.71, 15.35 -20.83, 8.35 -15.88 C1.35 -10.94, 1.55 -1.83, 0.34 0.8" stroke="none" stroke-width="0" fill="#ffec99" fill-rule="evenodd"></path><path d="M-1.19 -0.24 C4.59 2.32, 19.1 13.34, 34.09 16.1 C49.09 18.86, 81.15 21.62, 88.78 16.3 C96.42 10.97, 87.72 -8.09, 79.89 -15.85 C72.07 -23.61, 53.53 -30.05, 41.82 -30.27 C30.1 -30.49, 16.72 -22.05, 9.61 -17.17 C2.5 -12.29, 0.74 -3.99, -0.86 -0.98 M0.38 -1.41 C6.04 1.23, 18.37 14.73, 33.06 17.34 C47.74 19.94, 80.55 19.58, 88.48 14.23 C96.42 8.88, 88.68 -7.48, 80.67 -14.78 C72.66 -22.08, 52.6 -29.5, 40.41 -29.56 C28.23 -29.63, 14.41 -20.23, 7.56 -15.16 C0.71 -10.1, 0.75 -1.88, -0.67 0.81" stroke="transparent" stroke-width="4" fill="none"></path></g></g><mask></mask><g stroke-linecap="round"><g transform="translate(11.377300759835407 82.28223269829095) rotate(186.50665892668266 43.871416699157294 -13.220454686108269)" fill-rule="evenodd"><path d="M-2.39 0.51 C5.75 0.34, 34.79 -2.26, 50.18 -0.96 C65.57 0.33, 85.09 12.71, 89.96 8.29 C94.83 3.86, 87.29 -19.26, 79.4 -27.51 C71.5 -35.76, 55.26 -42.87, 42.6 -41.22 C29.95 -39.57, 10.3 -24.32, 3.46 -17.59 C-3.38 -10.85, 2.13 -3.88, 1.55 -0.82" stroke="none" stroke-width="0" fill="#fab005" fill-rule="evenodd"></path><path d="M0.07 0.79 C8.28 0.73, 34.42 -2.02, 48.99 -0.34 C63.56 1.33, 82.66 15.08, 87.47 10.83 C92.28 6.57, 85.58 -17.47, 77.85 -25.87 C70.12 -34.27, 53.51 -40.64, 41.1 -39.58 C28.69 -38.51, 10.35 -25.94, 3.4 -19.49 C-3.55 -13.04, -0.18 -4, -0.58 -0.86 M-1.35 0.16 C7.27 0.26, 36.73 -1.1, 51.37 0.92 C66.02 2.94, 82.07 17.07, 86.51 12.26 C90.94 7.45, 85.72 -19.44, 77.97 -27.94 C70.22 -36.44, 52.24 -39.95, 40.01 -38.71 C27.78 -37.48, 11.31 -27.14, 4.6 -20.52 C-2.11 -13.9, 0.45 -2.2, -0.24 1.01" stroke="transparent" stroke-width="4" fill="none"></path></g></g><mask></mask><g stroke-linecap="round" transform="translate(10 11.734218461418777) rotate(0 46.29617451553429 41.035245593314414)"><path d="M25.9 4.81 C32.7 1.27, 43.61 -0.88, 52.08 0.04 C60.55 0.95, 70.3 5.61, 76.7 10.29 C83.1 14.97, 88.14 21.29, 90.49 28.1 C92.84 34.91, 93.14 43.77, 90.81 51.14 C88.47 58.51, 82.59 67.3, 76.48 72.31 C70.36 77.33, 62.18 80.23, 54.14 81.24 C46.1 82.26, 36.09 81.4, 28.23 78.42 C20.36 75.43, 11.48 69.34, 6.93 63.34 C2.38 57.34, 0.8 49.87, 0.94 42.39 C1.07 34.92, 3.11 25.22, 7.75 18.49 C12.39 11.76, 24.84 4.56, 28.8 2.03 C32.75 -0.49, 31.26 2.4, 31.46 3.33 M51.83 1.43 C59.8 2.1, 70.99 5.93, 77.65 10.36 C84.31 14.79, 89.4 21.22, 91.78 28 C94.16 34.78, 94.44 43.92, 91.95 51.03 C89.46 58.13, 83.2 65.33, 76.85 70.65 C70.5 75.97, 62.35 81.5, 53.85 82.96 C45.35 84.42, 33.39 82.44, 25.86 79.42 C18.32 76.4, 12.7 70.98, 8.62 64.85 C4.54 58.71, 1.55 50.39, 1.39 42.6 C1.23 34.81, 3.62 24.69, 7.65 18.1 C11.69 11.52, 17.94 6.04, 25.6 3.08 C33.26 0.13, 48.95 0.87, 53.61 0.39 C58.27 -0.08, 53.99 -0.29, 53.57 0.24" stroke="#f08c00" stroke-width="4" fill="none"></path></g><g stroke-linecap="round"><g transform="translate(33.04351978381169 15.32972914534298) rotate(0 32.124030920585255 11.844829055801966)"><path d="M0.3 -0.63 C4.17 3.16, 13.24 20.35, 24.06 22.95 C34.88 25.56, 58.42 16.03, 65.24 14.99 M-0.99 1.65 C2.74 5.54, 12.72 21.56, 23.67 23.93 C34.62 26.29, 57.76 17.39, 64.7 15.84" stroke="#f08c00" stroke-width="4" fill="none"></path></g></g><mask></mask><g stroke-linecap="round"><g transform="translate(22.889275859438385 81.44152668083109) rotate(0 27.07281864106551 -0.8237751327151557)"><path d="M0.12 0.05 C4.91 -1.23, 19.62 -8.4, 28.83 -7.54 C38.05 -6.68, 50.95 2.83, 55.42 5.22 M-1.27 -0.97 C3.32 -2.12, 18.31 -7.53, 27.69 -6.37 C37.07 -5.21, 50.24 4.15, 55.02 5.96" stroke="#f08c00" stroke-width="4" fill="none"></path></g></g><mask></mask><g stroke-linecap="round"><g transform="translate(14.471789583886903 41.19542042584965) rotate(0 42.56019983470344 9.182263802693825)"><path d="M0 0.47 C5.66 3.22, 19.38 13.15, 33.81 16.19 C48.24 19.22, 77.82 18.29, 86.58 18.69 M-1.46 -0.33 C4.03 2.1, 18.02 11.56, 32.66 14.41 C47.31 17.26, 77.31 16.44, 86.39 16.77" stroke="#f08c00" stroke-width="4" fill="none"></path></g></g><mask></mask><g stroke-linecap="round"><g transform="translate(57.874453192200235 13.049450691973675) rotate(0 -15.941854334675782 37.24167741696181)"><path d="M0.32 -0.23 C-4.61 5.41, -27.1 21.02, -30.79 33.57 C-34.48 46.11, -23.3 67.94, -21.8 75.07 M-0.96 -1.4 C-5.91 3.91, -27.85 18.92, -31.47 31.8 C-35.09 44.68, -24.31 68.26, -22.69 75.88" stroke="#f08c00" stroke-width="4" fill="none"></path></g></g><mask></mask><g stroke-linecap="round"><g transform="translate(75.23551863552552 16.469054491416557) rotate(0 0.1807136648405958 38.390914570925815)"><path d="M1 -0.95 C2.5 6, 11.87 28.92, 10.11 42.03 C8.35 55.14, -6.15 71.93, -9.56 77.73 M0.06 1.17 C1.37 8.22, 11.16 30.67, 9.49 43.12 C7.82 55.57, -6.68 70.07, -9.96 75.87" stroke="#f08c00" stroke-width="4" fill="none"></path></g></g><mask></mask></svg>