<svg version="1.1" xmlns="http://www.w3.org/2000/svg" viewBox="0 0 88.96411837488085 63.781461159238404" width="88.96411837488085" height="63.781461159238404">
  <!-- svg-source:excalidraw -->
  
  <defs>
    <style class="style-fonts">
      
    </style>
    
  </defs>
  <g stroke-linecap="round"><g transform="translate(10 10) rotate(0 7.888052755296826 10.705214453617117)" fill-rule="evenodd"><path d="M-0.82 0.83 L10.76 21.02 L16.14 19.71 L0.22 -0.95" stroke="none" stroke-width="0" fill="#ffec99" fill-rule="evenodd"></path><path d="M0 0 C1.82 5.47, 4.18 8.22, 11.49 21.41 M0 0 C3.52 7.07, 7.53 15.09, 11.49 21.41 M11.49 21.41 C12.52 21.07, 13.46 20.82, 15.78 20.28 M11.49 21.41 C12.68 21.18, 13.92 20.9, 15.78 20.28 M15.78 20.28 C10.97 14.21, 8.14 10.5, 0 0 M15.78 20.28 C10.64 13.55, 5.93 7.75, 0 0 M0 0 C0 0, 0 0, 0 0 M0 0 C0 0, 0 0, 0 0" stroke="transparent" stroke-width="4" fill="none"></path></g></g><mask></mask><g stroke-linecap="round"><g transform="translate(11.126864679328264 10.000000000000057) rotate(0 7.775366287364022 17.466402529585878)"><path d="M0 0 C4.85 6.01, 11.38 13.89, 15.55 18.93 M0 0 C4.93 5.85, 10.07 13.01, 15.55 18.93 M15.55 18.93 C10.78 23.06, 6.13 27.45, 0.68 34.93 M15.55 18.93 C11.58 23.26, 7.78 27.48, 0.68 34.93" stroke="#f08c00" stroke-width="4" fill="none"></path></g></g><mask></mask><g stroke-linecap="round"><g transform="translate(32.31192065069649 44.70743212330609) rotate(0 18.47970767452773 4.537014517966213)" fill-rule="evenodd"><path d="M0.9 -0.95 L1.32 8.28 L35.43 8.21 L36.38 0.9 L0.94 0.39" stroke="none" stroke-width="0" fill="#ffec99" fill-rule="evenodd"></path><path d="M0 0 C-0.01 2.56, -0.03 5.48, 0.68 9.01 M0 0 C0.22 2.53, 0.25 5.29, 0.68 9.01 M0.68 9.01 C10.38 9.19, 22.47 8.99, 34.93 8.34 M0.68 9.01 C12.96 8.44, 26.17 8.75, 34.93 8.34 M34.93 8.34 C35.17 6.26, 35.99 3.96, 36.96 0.68 M34.93 8.34 C35.58 6.64, 36 5.15, 36.96 0.68 M36.96 0.68 C27.05 0.37, 17.08 0.23, 0 0 M36.96 0.68 C25.88 0.88, 13.7 0.67, 0 0 M0 0 C0 0, 0 0, 0 0 M0 0 C0 0, 0 0, 0 0" stroke="transparent" stroke-width="4" fill="none"></path></g></g><mask></mask><g stroke-linecap="round"><g transform="translate(35.016395881084236 46.96116148196228) rotate(0 21.97386124689831 0.06380307990275469)"><path d="M0 0 C9.72 0.21, 18.03 0.78, 43.95 0.23 M0 0 C11.87 -0.58, 23.49 -0.34, 43.95 0.23" stroke="#f08c00" stroke-width="4" fill="none"></path></g></g><mask></mask><g stroke-linecap="round"><g transform="translate(34.11490413762158 27.128343125787467) rotate(0 12.000323889208289 4.507458717312488)" fill-rule="evenodd"><path d="M-0.58 -0.34 L1.45 9.65 L24.88 9 L24.68 -0.27 L0.69 -0.55" stroke="none" stroke-width="0" fill="#ffec99" fill-rule="evenodd"></path><path d="M0 0 C-0.25 2.79, 0.58 4.71, 0.68 9.01 M0 0 C0.21 2.18, 0.23 4.3, 0.68 9.01 M0.68 9.01 C5.02 8.36, 11.09 9.16, 23.89 8.11 M0.68 9.01 C5.07 8.5, 9.79 9.07, 23.89 8.11 M23.89 8.11 C24.12 5.74, 24.08 3.66, 23.89 0.68 M23.89 8.11 C23.97 6.35, 23.98 4.31, 23.89 0.68 M23.89 0.68 C17.7 -0.02, 10.24 1.08, 0 0 M23.89 0.68 C19.2 0.85, 13.94 0.55, 0 0 M0 0 C0 0, 0 0, 0 0 M0 0 C0 0, 0 0, 0 0" stroke="transparent" stroke-width="4" fill="none"></path></g></g><mask></mask><g stroke-linecap="round"><g transform="translate(35.69251468868106 28.93132661271244) rotate(0 14.761927299198305 0.22797543518413477)"><path d="M0 0 C5.59 1.04, 12.23 -0.06, 29.52 0.23 M0 0 C11.22 0.46, 22.53 -0.27, 29.52 0.23" stroke="#f08c00" stroke-width="4" fill="none"></path></g></g><mask></mask><g stroke-linecap="round"><g transform="translate(34.34027707348719 10.450745871731158) rotate(0 9.578349774289109 4.062876894506616)" fill-rule="evenodd"><path d="M-0.94 -0.34 L0.9 9.01 L17 7.45 L18.33 0.82 L0.99 0.34" stroke="none" stroke-width="0" fill="#ffec99" fill-rule="evenodd"></path><path d="M0 0 C0.01 2.46, 0.79 5.78, 0.68 8.11 M0 0 C0.09 2.72, 0.6 5.23, 0.68 8.11 M0.68 8.11 C5.86 7.81, 12.01 8.77, 17.8 8.34 M0.68 8.11 C5.12 8.01, 10.2 7.98, 17.8 8.34 M17.8 8.34 C18.24 6.66, 18.72 4.36, 19.16 0.45 M17.8 8.34 C17.96 6.58, 18.53 4.49, 19.16 0.45 M19.16 0.45 C13.04 -0.56, 8.27 -0.44, 0 0 M19.16 0.45 C11.9 0.43, 4.88 0.25, 0 0 M0 0 C0 0, 0 0, 0 0 M0 0 C0 0, 0 0, 0 0" stroke="transparent" stroke-width="4" fill="none"></path></g></g><mask></mask><g stroke-linecap="round"><g transform="translate(35.69251468868106 11.352237615193815) rotate(0 8.11342569116232 0.11157078357879868)"><path d="M0 0 C5.35 0.52, 9.99 -0.2, 16.23 0.23 M0 0 C3.72 0.26, 8.16 -0.29, 16.23 0.23" stroke="#f08c00" stroke-width="4" fill="none"></path></g></g><mask></mask></svg>