<svg version="1.1" xmlns="http://www.w3.org/2000/svg" viewBox="0 0 143.17630635316027 116.45552031887661" width="286.35261270632054" height="232.91104063775322">
  <!-- svg-source:excalidraw -->
  
  <defs>
    <style class="style-fonts">
      
    </style>
    
  </defs>
  <g stroke-linecap="round"><g transform="translate(55.94671744919481 34.43974332403968) rotate(0 17.92247843762908 36.00788849741846)" fill-rule="evenodd"><path d="M1.01 -1.75 L2.95 6.64 L33.6 20.95 L52.31 3.86 L70.52 10.84 L79.02 31.28 L10.69 55.52 L-0.06 48.82 L-1.22 64.16 L-28.9 70.83 L-38.25 46 L-34.69 46.42 L-40.34 8.72 L-1.69 0.62" stroke="none" stroke-width="0" fill="#ffec99" fill-rule="evenodd"></path><path d="M0 0 C0.96 3.04, 2.39 4.84, 2.61 8.15 M0 0 C0.94 1.44, 1.35 3.61, 2.61 8.15 M2.61 8.15 C13.13 14.14, 23.4 14.54, 31.93 19.55 M2.61 8.15 C13.3 11.55, 22.89 15.71, 31.93 19.55 M31.93 19.55 C36.52 14.71, 38.75 13.55, 52.46 2.61 M31.93 19.55 C39.04 14.37, 45.96 9.36, 52.46 2.61 M52.46 2.61 C56.73 4.83, 61.08 5.76, 71.36 12.71 M52.46 2.61 C56.66 4.6, 62.11 6.64, 71.36 12.71 M71.36 12.71 C73.55 16.92, 73.03 26.85, 77.23 31.93 M71.36 12.71 C73.2 16.9, 72.83 21.41, 77.23 31.93 M77.23 31.93 C55.75 39.77, 38.2 43.92, 10.1 54.75 M77.23 31.93 C58.42 38.43, 38.97 44.91, 10.1 54.75 M10.1 54.75 C7.77 53.92, 5.76 52.31, 0.33 48.55 M10.1 54.75 C7.31 53.54, 5.34 50.87, 0.33 48.55 M0.33 48.55 C1.19 54.64, -0.58 58.59, 0 65.17 M0.33 48.55 C0.82 53.64, 1.01 58.52, 0 65.17 M0 65.17 C-9.02 69.24, -17.43 69.38, -27.37 72.02 M0 65.17 C-10.11 68.36, -17.97 69.98, -27.37 72.02 M-27.37 72.02 C-30.13 65.52, -34.58 55.19, -38.45 46.27 M-27.37 72.02 C-30.86 61.9, -35.59 54.06, -38.45 46.27 M-38.45 46.27 C-37.11 45.72, -36.03 45.7, -33.89 45.29 M-38.45 46.27 C-37.18 45.81, -35.64 45.73, -33.89 45.29 M-33.89 45.29 C-34.94 32.71, -37.01 20.71, -41.38 9.45 M-33.89 45.29 C-34.95 36.07, -36.33 27.65, -41.38 9.45 M-41.38 9.45 C-29.31 7.22, -15.41 4.63, 0 0 M-41.38 9.45 C-26.53 6.37, -10.31 2.97, 0 0 M0 0 C0 0, 0 0, 0 0 M0 0 C0 0, 0 0, 0 0" stroke="#f08c00" stroke-width="2" fill="none"></path></g></g><mask></mask><g stroke-linecap="round"><g transform="translate(10 21.40521355121848) rotate(0 27.53544414508474 9.287102463135113)" fill-rule="evenodd"><path d="M1.65 1.21 L38.32 -12.03 L55.92 11.15 L-0.34 29.78 L-1.6 -0.15" stroke="none" stroke-width="0" fill="#fab005" fill-rule="evenodd"></path><path d="M0 0 C13.34 -4.85, 24.04 -7.74, 37.8 -11.41 M0 0 C12.73 -2.52, 24.25 -6.26, 37.8 -11.41 M37.8 -11.41 C44.08 -6.01, 49.64 1, 55.07 10.43 M37.8 -11.41 C42.52 -4.52, 48.4 1.91, 55.07 10.43 M55.07 10.43 C43.3 13.93, 31.25 18.41, 0.65 29.98 M55.07 10.43 C42.59 14.39, 31.57 19.56, 0.65 29.98 M0.65 29.98 C1.8 23.04, 1.91 15.96, 0 0 M0.65 29.98 C0.69 24.22, 1.28 18.24, 0 0 M0 0 C0 0, 0 0, 0 0 M0 0 C0 0, 0 0, 0 0" stroke="#f08c00" stroke-width="2" fill="none"></path></g></g><mask></mask></svg>