<svg version="1.1" xmlns="http://www.w3.org/2000/svg" viewBox="0 0 77.35659061950332 86.71785078205352" width="77.35659061950332" height="86.71785078205352" filter="invert(93%) hue-rotate(180deg)">
  <!-- svg-source:excalidraw -->
  
  <defs>
    <style class="style-fonts">
      
    </style>
    
  </defs>
  <g stroke-linecap="round" transform="translate(27.647024611043094 10.000000000000057) rotate(0 13.390186064717568 12.421159441613014)"><path d="M11.83 0.05 C14.56 -0.5, 18.21 0.28, 20.64 1.73 C23.08 3.18, 25.56 6.16, 26.45 8.74 C27.34 11.32, 27.07 14.85, 25.96 17.21 C24.85 19.56, 22.35 21.74, 19.79 22.89 C17.23 24.04, 13.49 24.48, 10.61 24.09 C7.72 23.7, 4.23 22.6, 2.47 20.55 C0.71 18.5, -0.14 14.61, 0.06 11.8 C0.27 8.99, 1.65 5.71, 3.7 3.68 C5.74 1.65, 10.83 0.22, 12.34 -0.38 C13.85 -0.99, 12.78 -0.16, 12.76 0.05 M16.72 0.58 C19.37 1, 22.17 3.09, 23.74 5.04 C25.31 6.99, 26.33 9.67, 26.14 12.31 C25.95 14.94, 24.48 18.66, 22.6 20.85 C20.73 23.04, 17.6 24.97, 14.88 25.44 C12.17 25.91, 8.77 25.18, 6.32 23.67 C3.86 22.15, 0.97 19.06, 0.15 16.37 C-0.67 13.69, 0.3 10.13, 1.38 7.56 C2.45 4.99, 4.01 2.22, 6.6 0.96 C9.19 -0.3, 15.27 0.14, 16.93 0 C18.6 -0.13, 16.77 -0.18, 16.6 0.17" stroke="none" stroke-width="0" fill="#e8590c"></path><path d="M10.86 0.17 C13.53 -0.33, 17.24 0.76, 19.75 2.02 C22.26 3.28, 24.86 5.32, 25.92 7.73 C26.97 10.13, 27.04 13.98, 26.07 16.47 C25.1 18.96, 22.57 21.27, 20.12 22.66 C17.66 24.04, 14.22 25.15, 11.35 24.78 C8.48 24.42, 4.8 22.46, 2.89 20.46 C0.99 18.45, -0.04 15.36, -0.08 12.76 C-0.13 10.16, 0.76 6.94, 2.6 4.86 C4.44 2.79, 9.5 1, 10.94 0.32 C12.37 -0.35, 11.13 0.64, 11.23 0.81 M10.25 0.2 C13 -0.54, 18.04 0.08, 20.62 1.3 C23.21 2.51, 24.92 5.09, 25.77 7.52 C26.62 9.95, 26.7 13.2, 25.73 15.88 C24.76 18.56, 22.38 22.21, 19.94 23.61 C17.5 25.01, 13.76 24.74, 11.07 24.29 C8.38 23.83, 5.53 22.79, 3.8 20.88 C2.07 18.98, 0.75 15.7, 0.7 12.86 C0.66 10.02, 1.92 5.96, 3.53 3.84 C5.14 1.72, 9.22 0.79, 10.36 0.15 C11.49 -0.5, 10.07 -0.16, 10.33 -0.05" stroke="#e8590c" stroke-width="1" fill="none"></path></g><g stroke-linecap="round"><g transform="translate(39.166725220097874 35.438446650011315) rotate(0 11.381337400847315 15.872169042971052)"><path d="M0 0 C-0.55 6.81, -2.39 12.39, -5.29 21.85 M0 0 C-2.07 7.33, -3.39 14.54, -5.29 21.85 M-5.29 21.85 C0.04 20.56, 5.1 18.72, 9.45 17.35 M-5.29 21.85 C-1.48 20.73, 1.74 19.36, 9.45 17.35 M9.45 17.35 C16.5 23.39, 24.48 27.97, 28.05 31.74 M9.45 17.35 C15.96 22.07, 21.93 26.78, 28.05 31.74" stroke="#e8590c" stroke-width="4" fill="none"></path></g></g><mask></mask><g stroke-linecap="round"><g transform="translate(33.000192163978 59.047458922013334) rotate(0 -11.500096081989 8.835195930020092)"><path d="M0 0 C-3.72 5.03, -7.08 8.03, -10.78 14.07 M0 0 C-2.03 2.93, -4.2 5.82, -10.78 14.07 M-10.78 14.07 C-13.5 15.23, -16.96 16.42, -23 17.67 M-10.78 14.07 C-14.03 14.94, -17 15.63, -23 17.67" stroke="#e8590c" stroke-width="4" fill="none"></path></g></g><mask></mask><g stroke-linecap="round"><g transform="translate(37.757231950127675 39.36259056575261) rotate(0 -12.621958090761268 9.770007243933009)"><path d="M0 0 C-5.07 1, -9.2 1.48, -16.95 3.64 M0 0 C-5.6 0.84, -10.97 1.97, -16.95 3.64 M-16.95 3.64 C-19.24 8.1, -20.52 12.41, -25.24 19.54 M-16.95 3.64 C-19.89 9.08, -22.24 14.34, -25.24 19.54" stroke="#e8590c" stroke-width="4" fill="none"></path></g></g><mask></mask><g stroke-linecap="round"><g transform="translate(40.22384517257558 40.37167309490724) rotate(0 13.566372723463871 1.5455498628239184)"><path d="M0 0 C5.02 2.3, 9.28 4.65, 16.21 8.91 M0 0 C4.14 2.06, 7.53 4.03, 16.21 8.91 M16.21 8.91 C19.71 5.33, 22.84 1.12, 27.13 -5.81 M16.21 8.91 C19.62 4.13, 23.37 -0.87, 27.13 -5.81" stroke="#e8590c" stroke-width="4" fill="none"></path></g></g><mask></mask></svg>